<svg width="912" height="55" viewBox="0 0 912 55" fill="none" xmlns="http://www.w3.org/2000/svg">
<path d="M88.8405 54.3C73.9288 54.3 61.8405 42.2117 61.8405 27.3C61.8405 12.3884 73.9288 0.300049 88.8405 0.300049V54.3Z" fill="#2D1F0F"/>
<path d="M58.3405 54.3C43.4288 54.3 31.3405 42.2117 31.3405 27.3C31.3405 12.3884 43.4288 0.300049 58.3405 0.300049V54.3Z" fill="#2D1F0F"/>
<path d="M27.8405 54.3C12.9288 54.3 0.840454 42.2117 0.840454 27.3C0.840454 12.3884 12.9288 0.300049 27.8405 0.300049V54.3Z" fill="#2D1F0F"/>
<path d="M194.265 40.885L204.99 6.5H221.37L206.29 53.3H182.89L170.605 19.825L158.32 53.3H134.92L119.84 6.5H136.22L146.945 40.885L159.88 6.5H181.33L194.265 40.885Z" fill="#2D1F0F"/>
<path d="M251.997 13C268.312 13 276.112 18.46 276.242 33.345V53.3H261.292V48.1C254.337 52.39 245.757 53.95 239.127 53.95C228.922 53.95 221.122 50.765 221.122 41.535C221.122 30.875 232.822 28.21 243.547 28.21C250.177 28.21 256.222 29.12 261.292 30.16C260.902 24.765 256.027 23.4 249.202 23.4C242.247 23.4 235.617 24.375 226.387 26.52L224.307 16.315C232.757 14.43 241.857 13 251.997 13ZM244.262 43.55C248.942 43.55 257.002 42.315 261.292 41.6V38.61C256.287 37.895 250.762 37.31 245.757 37.31C239.192 37.31 236.722 38.155 236.722 40.495C236.722 42.705 238.672 43.55 244.262 43.55Z" fill="#2D1F0F"/>
<path d="M283.792 53.3V1.3H298.742V53.3H283.792Z" fill="#2D1F0F"/>
<path d="M306.886 53.3V1.3H321.836V53.3H306.886Z" fill="#2D1F0F"/>
<path d="M382.196 54.6C363.671 54.6 354.376 46.735 354.376 33.8C354.376 20.865 363.671 13 382.196 13C400.721 13 410.016 20.865 410.016 33.8C410.016 46.735 400.721 54.6 382.196 54.6ZM382.196 42.9C390.451 42.9 394.416 40.17 394.416 33.8C394.416 27.43 390.451 24.7 382.196 24.7C373.941 24.7 369.976 27.43 369.976 33.8C369.976 40.17 373.941 42.9 382.196 42.9Z" fill="#2D1F0F"/>
<path d="M444.803 9.75C438.758 9.75 437.198 11.115 437.068 14.3H452.343V25.35H437.068V53.3H422.118V25.35H412.953V14.3H422.118V12.805C422.118 5.005 428.098 0 440.838 0C444.673 0 448.573 0.195001 452.343 0.649999V10.205C447.988 9.88 446.558 9.75 444.803 9.75Z" fill="#2D1F0F"/>
<path d="M484.229 37.895H501.129C501.129 40.755 504.314 42.9 513.934 42.9C523.944 42.9 525.439 41.535 525.439 39.52C525.439 36.985 523.944 36.53 511.984 35.62C493.394 34.255 484.879 30.095 484.879 19.695C484.879 10.14 495.344 5.2 511.334 5.2C529.729 5.2 539.739 10.79 540.389 21.125H523.489C523.489 18.07 519.589 16.9 511.334 16.9C503.404 16.9 501.779 18.135 501.779 19.76C501.779 21.775 503.404 22.555 514.584 23.53C531.224 24.96 542.339 26.325 542.339 38.87C542.339 50.765 531.939 54.6 514.584 54.6C495.799 54.6 484.879 50.115 484.229 37.895Z" fill="#2D1F0F"/>
<path d="M575.118 54.6C556.593 54.6 547.298 46.735 547.298 33.8C547.298 20.865 556.593 13 575.118 13C593.643 13 602.938 20.865 602.938 33.8C602.938 46.735 593.643 54.6 575.118 54.6ZM575.118 42.9C583.373 42.9 587.338 40.17 587.338 33.8C587.338 27.43 583.373 24.7 575.118 24.7C566.863 24.7 562.898 27.43 562.898 33.8C562.898 40.17 566.863 42.9 575.118 42.9Z" fill="#2D1F0F"/>
<path d="M651.328 29.575V14.3H666.278V53.3H651.328V44.2C646.518 50.31 639.888 54.6 628.968 54.6C617.138 54.6 609.143 49.465 609.143 35.165V14.3H624.093V29.575C624.093 38.09 627.018 42.25 636.313 42.25C645.868 42.25 651.328 38.09 651.328 29.575Z" fill="#2D1F0F"/>
<path d="M711.758 13C723.588 13 731.583 18.135 731.583 32.435V53.3H716.633V38.025C716.633 29.51 713.708 25.35 704.413 25.35C694.858 25.35 689.398 29.51 689.398 38.025V53.3H674.448V14.3H689.398V23.4C694.208 17.29 700.838 13 711.758 13Z" fill="#2D1F0F"/>
<path d="M777.209 21.255V1.3H792.159V53.3H777.209V46.345C773.244 52.39 766.224 54.6 759.139 54.6C749.064 54.6 737.819 49.53 737.819 33.8C737.819 18.07 749.064 13 759.139 13C766.224 13 773.244 15.21 777.209 21.255ZM765.314 42.25C773.244 42.25 777.209 39.52 777.209 33.8C777.209 28.08 773.244 25.35 765.314 25.35C757.384 25.35 753.419 28.08 753.419 33.8C753.419 39.52 757.384 42.25 765.314 42.25Z" fill="#2D1F0F"/>
<path d="M823.159 54.3C838.071 54.3 850.159 42.2117 850.159 27.3C850.159 12.3884 838.071 0.300049 823.159 0.300049V54.3Z" fill="#2D1F0F"/>
<path d="M853.659 54.3C868.571 54.3 880.659 42.2117 880.659 27.3C880.659 12.3884 868.571 0.300049 853.659 0.300049V54.3Z" fill="#2D1F0F"/>
<path d="M884.159 54.3C899.071 54.3 911.159 42.2117 911.159 27.3C911.159 12.3884 899.071 0.300049 884.159 0.300049V54.3Z" fill="#2D1F0F"/>
</svg>
